<svg width="24" height="24" viewBox="0 0 24 24" fill="none" xmlns="http://www.w3.org/2000/svg">
<g clip-path="url(#clip0_494_66)">
<path d="M16 3.99998C14.5384 4.06906 13.1535 4.67428 12.11 5.69998L11.99 5.80998L11.87 5.69998C10.7632 4.61703 9.27844 4.00733 7.73 3.99998C6.21204 3.99998 4.75611 4.6023 3.68181 5.67473C2.60751 6.74715 2.00265 8.20203 2 9.71999C2 12.8 3.13 14.27 8.18 18.26L10.87 20.36C11.53 20.88 12.47 20.88 13.13 20.36L15.49 18.52L16.43 17.78C20.96 14.14 22 12.68 22 9.71999C21.9974 8.20203 21.3925 6.74715 20.3182 5.67473C19.2439 4.6023 17.788 3.99998 16.27 3.99998H16Z" fill="#FC3E3E"/>
</g>
<defs>
<clipPath id="clip0_494_66">
<rect width="24" height="24" fill="white"/>
</clipPath>
</defs>
</svg>
