<svg width="24" height="24" viewBox="0 0 24 24" fill="none" xmlns="http://www.w3.org/2000/svg">
<g clip-path="url(#clip0_494_74)">
<path d="M16.9 3.99997H7.1C5.95 3.99997 5.37 4.10997 4.75 4.43997C4.19 4.73997 3.75 5.18997 3.44 5.74997C3.11 6.36997 3 6.94997 3 8.09997V13.9C3 15.05 3.11 15.63 3.44 16.25C3.74 16.81 4.19 17.25 4.75 17.56L4.9 17.63C5.41 17.88 5.94 17.98 6.85 18H7.1V20.21C7.1 20.65 7.27 21.06 7.57 21.37L7.69 21.47C8.33 22.02 9.29 21.99 9.9 21.39L13.37 18H16.9C18.05 18 18.63 17.89 19.25 17.56C19.81 17.26 20.25 16.81 20.56 16.25C20.89 15.63 21 15.05 21 13.9V8.09997C21 6.94997 20.89 6.36997 20.56 5.74997C20.2635 5.1926 19.8074 4.73645 19.25 4.43997C18.5205 4.08456 17.7087 3.93255 16.9 3.99997Z" fill="white"/>
</g>
<defs>
<clipPath id="clip0_494_74">
<rect width="24" height="24" fill="white"/>
</clipPath>
</defs>
</svg>
