<svg width="24" height="24" viewBox="0 0 24 24" fill="none" xmlns="http://www.w3.org/2000/svg">
<g clip-path="url(#clip0_494_70)">
<path d="M16.9 3.99997H7.1C5.95 3.99997 5.37 4.10997 4.75 4.43997C4.19 4.73997 3.75 5.18997 3.44 5.74997C3.11 6.36997 3 6.94997 3 8.09997V13.9C3 15.05 3.11 15.63 3.44 16.25C3.74 16.81 4.19 17.25 4.75 17.56L4.9 17.63C5.41 17.88 5.94 17.98 6.85 18H7.1V20.21C7.1 20.65 7.27 21.06 7.57 21.37L7.69 21.47C8.33 22.02 9.29 21.99 9.9 21.39L13.37 18H16.9C18.05 18 18.63 17.89 19.25 17.56C19.81 17.26 20.25 16.81 20.56 16.25C20.89 15.63 21 15.05 21 13.9V8.09997C21 6.94997 20.89 6.36997 20.56 5.74997C20.2635 5.1926 19.8074 4.73645 19.25 4.43997C18.5205 4.08456 17.7087 3.93255 16.9 3.99997ZM6.9 5.79997H16.89C17.77 5.79997 18.07 5.85997 18.39 6.02997C18.64 6.15997 18.83 6.34997 18.96 6.59997C19.13 6.91997 19.19 7.21997 19.19 8.09997V14.26C19.17 14.87 19.1 15.13 18.96 15.4C18.83 15.65 18.64 15.84 18.39 15.97C18.07 16.14 17.77 16.2 16.89 16.2H12.87C12.6762 16.2288 12.4972 16.3201 12.36 16.46L8.89 19.86V17.1C8.89 16.6 8.49 16.2 7.99 16.2H6.74C6.34657 16.2222 5.95402 16.143 5.6 15.97C5.35714 15.8414 5.15854 15.6428 5.03 15.4C4.86 15.08 4.8 14.78 4.8 13.9V7.73997C4.82 7.12997 4.89 6.86997 5.03 6.59997C5.16 6.34997 5.35 6.15997 5.6 6.02997C5.9 5.86997 6.18 5.80997 6.91 5.79997H6.9Z" fill="white"/>
</g>
<defs>
<clipPath id="clip0_494_70">
<rect width="24" height="24" fill="white"/>
</clipPath>
</defs>
</svg>
