<svg width="37" height="21" viewBox="0 0 37 21" fill="none" xmlns="http://www.w3.org/2000/svg">
<path fill-rule="evenodd" clip-rule="evenodd" d="M32.7672 15.9505V5.69265H34.8517L32.7672 3.31077L30.0736 0V3.31077H27.972V5.69265H30.0736V15.9505C30.0736 17.6443 30.4486 18.8616 31.1984 19.6027C31.9483 20.3437 33.0731 20.7142 34.5728 20.7142H37V18.2688H35.0168C34.188 18.2688 33.6059 18.0994 33.2704 17.7607C32.935 17.4008 32.7672 16.7974 32.7672 15.9505ZM21.762 6.13723C22.2356 5.14213 22.9065 4.36934 23.7748 3.81887C24.6628 3.26839 25.7383 2.99316 27.0012 2.99316V5.97843H26.2908C23.2716 5.97843 21.762 7.73573 21.762 11.2503V20.7142H19.0684V3.31077H21.762V6.13723ZM0 11.949C0 10.1705 0.335502 8.61435 1.0064 7.2805C1.67735 5.92551 2.59495 4.87748 3.7592 4.13648C4.9432 3.39542 6.2555 3.02494 7.696 3.02494C9.1168 3.02494 10.3502 3.3531 11.396 4.00946C12.4419 4.66576 13.2214 5.49147 13.7344 6.48658V3.31077H16.4576V20.7142H13.7344V17.4749C13.2016 18.4911 12.4024 19.338 11.3368 20.0155C10.2909 20.6718 9.0675 21 7.6664 21C6.2259 21 4.9235 20.6189 3.7592 19.8567C2.59495 19.0945 1.67735 18.0253 1.0064 16.6492C0.335502 15.273 0 13.7062 0 11.949ZM13.7344 11.9807C13.7344 10.668 13.4878 9.52476 12.9944 8.55084C12.5011 7.57692 11.8301 6.83592 10.9816 6.32777C10.1528 5.79849 9.2352 5.53385 8.2288 5.53385C7.2224 5.53385 6.3048 5.78789 5.476 6.29598C4.6472 6.80413 3.98615 7.54514 3.4928 8.51906C2.9995 9.49298 2.7528 10.6363 2.7528 11.949C2.7528 13.2828 2.9995 14.4472 3.4928 15.4423C3.98615 16.4162 4.6472 17.1678 5.476 17.6972C6.3048 18.2053 7.2224 18.4593 8.2288 18.4593C9.2352 18.4593 10.1528 18.2053 10.9816 17.6972C11.8301 17.1678 12.5011 16.4162 12.9944 15.4423C13.4878 14.4472 13.7344 13.2934 13.7344 11.9807Z" fill="white"/>
</svg>
