<svg width="22" height="21" viewBox="0 0 22 21" fill="none" xmlns="http://www.w3.org/2000/svg">
<path d="M6.15258 16.8626C6.40711 16.5699 6.82708 16.4681 7.19615 16.6081C8.22699 16.9899 9.35965 17.1808 10.505 17.1808C15.3029 17.1808 19.0954 13.7446 19.0954 9.54487C19.0954 5.34513 15.3029 1.90897 10.505 1.90897C5.70715 1.90897 1.91465 5.34513 1.91465 9.54487C1.91465 11.0848 2.42371 12.561 3.36547 13.8082C3.49274 13.9864 3.5691 14.2028 3.55637 14.4318C3.50546 15.3991 3.04731 16.6972 2.18191 18.4152C4.06543 18.2752 5.36353 17.7407 6.15258 16.8626ZM1.58376 20.3624C1.31468 20.3724 1.04774 20.311 0.810013 20.1846C0.572282 20.0581 0.37221 19.8711 0.23008 19.6424C0.087949 19.4137 0.00881324 19.1515 0.000694477 18.8823C-0.00742428 18.6132 0.0557628 18.3467 0.18385 18.1098C0.816126 17.0226 1.29575 15.8535 1.60922 14.6355C0.567017 13.1424 0.00738252 11.3657 0.00567896 9.54487C0.00567896 4.23792 4.68903 0 10.505 0C16.321 0 21.0044 4.23792 21.0044 9.54487C21.0044 14.8518 16.321 19.0897 10.505 19.0897C9.3342 19.0897 8.20154 18.9243 7.11979 18.5807C5.84714 19.7133 3.98907 20.286 1.58376 20.3624Z" fill="#111439"/>
</svg>
