<svg width="28" height="20" viewBox="0 0 28 20" fill="none" xmlns="http://www.w3.org/2000/svg">
<path fill-rule="evenodd" clip-rule="evenodd" d="M8.07692 0C6.85285 0 5.67891 0.486262 4.81335 1.35182C3.9478 2.21737 3.46154 3.39131 3.46154 4.61538C3.46154 5.83946 3.9478 7.0134 4.81335 7.87896C5.67891 8.74451 6.85285 9.23077 8.07692 9.23077C9.301 9.23077 10.4749 8.74451 11.3405 7.87896C12.206 7.0134 12.6923 5.83946 12.6923 4.61538C12.6923 3.39131 12.206 2.21737 11.3405 1.35182C10.4749 0.486262 9.301 0 8.07692 0ZM5.76923 4.61538C5.76923 4.91844 5.82892 5.21852 5.94489 5.4985C6.06087 5.77848 6.23085 6.03288 6.44514 6.24717C6.65943 6.46146 6.91382 6.63144 7.19381 6.74741C7.47379 6.86339 7.77387 6.92308 8.07692 6.92308C8.37997 6.92308 8.68006 6.86339 8.96004 6.74741C9.24002 6.63144 9.49442 6.46146 9.70871 6.24717C9.923 6.03288 10.093 5.77848 10.209 5.4985C10.3249 5.21852 10.3846 4.91844 10.3846 4.61538C10.3846 4.00335 10.1415 3.41638 9.70871 2.9836C9.27593 2.55082 8.68896 2.30769 8.07692 2.30769C7.46488 2.30769 6.87791 2.55082 6.44514 2.9836C6.01236 3.41638 5.76923 4.00335 5.76923 4.61538ZM2.6 12.4154C4.07692 11.5692 6.01538 11.1538 8.07692 11.1538C10.1385 11.1538 12.0769 11.5692 13.5538 12.4154C15.0615 13.2769 16.1538 14.6769 16.1538 16.5385C16.1538 17.6154 15.7231 18.5385 14.9538 19.1692C14.2154 19.7692 13.2615 20 12.3077 20H3.84615C2.90769 20 1.93846 19.7692 1.2 19.1692C0.430769 18.5538 0 17.6308 0 16.5385C0 14.6769 1.09231 13.2769 2.6 12.4154ZM3.75385 14.4154C2.75385 14.9846 2.30769 15.7077 2.30769 16.5385C2.30769 17 2.46154 17.2154 2.64615 17.3692C2.86154 17.5385 3.26154 17.6923 3.84615 17.6923H12.3077C12.9077 17.6923 13.2923 17.5385 13.5077 17.3692C13.6923 17.2154 13.8462 16.9846 13.8462 16.5385C13.8462 15.7077 13.4 15 12.4 14.4154C11.3846 13.8154 9.86154 13.4615 8.07692 13.4615C6.29231 13.4615 4.76923 13.8154 3.75385 14.4154ZM19.6154 0C18.3913 0 17.2174 0.486262 16.3518 1.35182C15.4863 2.21737 15 3.39131 15 4.61538C15 5.83946 15.4863 7.0134 16.3518 7.87896C17.2174 8.74451 18.3913 9.23077 19.6154 9.23077C20.8395 9.23077 22.0134 8.74451 22.879 7.87896C23.7445 7.0134 24.2308 5.83946 24.2308 4.61538C24.2308 3.39131 23.7445 2.21737 22.879 1.35182C22.0134 0.486262 20.8395 0 19.6154 0ZM17.3077 4.61538C17.3077 5.22742 17.5508 5.81439 17.9836 6.24717C18.4164 6.67995 19.0033 6.92308 19.6154 6.92308C20.2274 6.92308 20.8144 6.67995 21.2472 6.24717C21.6799 5.81439 21.9231 5.22742 21.9231 4.61538C21.9231 4.00335 21.6799 3.41638 21.2472 2.9836C20.8144 2.55082 20.2274 2.30769 19.6154 2.30769C19.0033 2.30769 18.4164 2.55082 17.9836 2.9836C17.5508 3.41638 17.3077 4.00335 17.3077 4.61538Z" fill="white"/>
<path d="M19.6149 13.4615C19.2611 13.4615 18.9226 13.4769 18.5688 13.5077C18.4127 13.5331 18.2531 13.5261 18.0999 13.4873C17.9466 13.4484 17.803 13.3785 17.6778 13.2818C17.5527 13.1852 17.4488 13.0638 17.3726 12.9253C17.2963 12.7868 17.2493 12.6342 17.2346 12.4767C17.2198 12.3193 17.2375 12.1606 17.2866 12.0103C17.3357 11.86 17.4152 11.7214 17.5201 11.6032C17.625 11.4849 17.7531 11.3894 17.8965 11.3227C18.0398 11.256 18.1953 11.2195 18.3534 11.2153C18.7688 11.1692 19.1841 11.1538 19.6149 11.1538C21.6764 11.1538 23.6149 11.5692 25.0918 12.4153C26.5995 13.2769 27.6918 14.6769 27.6918 16.5384C27.6918 17.6153 27.2611 18.5384 26.4918 19.1692C25.7534 19.7692 24.7995 20 23.8457 20H19.2303C18.9243 20 18.6308 19.8784 18.4144 19.662C18.198 19.4456 18.0764 19.1521 18.0764 18.8461C18.0764 18.5401 18.198 18.2466 18.4144 18.0302C18.6308 17.8138 18.9243 17.6923 19.2303 17.6923H23.8457C24.4457 17.6923 24.8303 17.5384 25.0457 17.3692C25.2303 17.2153 25.3841 16.9846 25.3841 16.5384C25.3841 15.7077 24.938 15 23.938 14.4153C22.6006 13.7374 21.1134 13.4093 19.6149 13.4615Z" fill="white"/>
</svg>
