<svg width="19" height="19" viewBox="0 0 19 19" fill="none" xmlns="http://www.w3.org/2000/svg">
<path d="M5.36133 13.8926C6.29883 14.8301 7.28841 15.6764 8.33008 16.4317C9.37175 17.1869 10.4134 17.7858 11.4551 18.2285C12.4968 18.6712 13.4831 18.8926 14.4141 18.8926C15.0456 18.8926 15.6347 18.7787 16.1816 18.5508C16.7285 18.3229 17.2233 17.9649 17.666 17.4766C17.9264 17.1901 18.1315 16.8825 18.2813 16.5537C18.431 16.225 18.5059 15.8946 18.5059 15.5625C18.5059 15.3151 18.4571 15.0791 18.3594 14.8545C18.2617 14.6299 18.0957 14.4362 17.8613 14.2735L14.8633 12.1445C14.6354 11.9883 14.4238 11.8711 14.2285 11.793C14.0332 11.7149 13.8477 11.6758 13.6719 11.6758C13.4506 11.6758 13.2357 11.736 13.0274 11.8565C12.8191 11.9769 12.6042 12.1478 12.3828 12.3692L11.6895 13.0527C11.5918 13.1569 11.4681 13.209 11.3184 13.209C11.2403 13.209 11.167 13.196 11.0986 13.1699C11.0303 13.1439 10.9733 13.1211 10.9277 13.1016C10.6218 12.9388 10.2311 12.6572 9.75586 12.2568C9.2806 11.8565 8.80208 11.4154 8.32031 10.9336C7.84505 10.4518 7.4056 9.97327 7.00195 9.49805C6.5983 9.02279 6.31836 8.63542 6.16211 8.33594C6.13607 8.28385 6.11166 8.22363 6.08887 8.15528C6.06608 8.08692 6.05469 8.01693 6.05469 7.94531C6.05469 7.80208 6.10352 7.68164 6.20117 7.58399L6.89453 6.8711C7.10938 6.64974 7.27865 6.4349 7.40234 6.22657C7.52604 6.01823 7.58789 5.80339 7.58789 5.58203C7.58789 5.40625 7.5472 5.2207 7.46582 5.02539C7.38444 4.83007 7.26237 4.61849 7.09961 4.39063L5 1.43164C4.83073 1.19726 4.6289 1.02637 4.39453 0.918945C4.16016 0.811523 3.91276 0.757812 3.65234 0.757812C2.98177 0.757812 2.35351 1.04101 1.76758 1.60742C1.29232 2.06315 0.945638 2.56608 0.727539 3.11621C0.50944 3.66634 0.400391 4.25391 0.400391 4.87891C0.400391 5.81641 0.61849 6.80111 1.05469 7.83301C1.49088 8.86491 2.08333 9.89843 2.83203 10.9336C3.58073 11.9687 4.42383 12.9551 5.36133 13.8926Z" fill="#635BFF"/>
</svg>
