<svg width="22" height="21" viewBox="0 0 22 21" fill="none" xmlns="http://www.w3.org/2000/svg">
<path d="M7.91797 20.0782C8.11328 20.0782 8.22071 19.974 8.24024 19.7657C8.32487 19.1146 8.41113 18.6035 8.49902 18.2325C8.58691 17.8613 8.72689 17.5814 8.91895 17.3926C9.111 17.2038 9.39583 17.0605 9.77344 16.9629C10.151 16.8652 10.6719 16.7643 11.336 16.6602C11.5638 16.6211 11.6778 16.5104 11.6778 16.3282C11.6778 16.1458 11.5768 16.0351 11.375 15.9961C10.7109 15.8724 10.1869 15.7601 9.80274 15.6592C9.41862 15.5583 9.12728 15.4167 8.92871 15.2344C8.73014 15.0521 8.58691 14.7787 8.49902 14.4141C8.41113 14.0495 8.32487 13.5417 8.24024 12.8907C8.22071 12.6823 8.11328 12.5782 7.91797 12.5782C7.72266 12.5782 7.61198 12.6791 7.58594 12.8809C7.5013 13.5449 7.41341 14.0641 7.32227 14.4385C7.23112 14.8128 7.08952 15.096 6.89746 15.2881C6.70541 15.4801 6.41732 15.6234 6.0332 15.7178C5.64909 15.8122 5.12174 15.9049 4.45117 15.9961C4.36654 16.0091 4.29492 16.045 4.23633 16.1036C4.17774 16.1621 4.14844 16.237 4.14844 16.3282C4.14844 16.5104 4.24935 16.6211 4.45117 16.6602C5.12174 16.7838 5.64909 16.8978 6.0332 17.002C6.41732 17.1061 6.70541 17.251 6.89746 17.4366C7.08952 17.6221 7.22949 17.8972 7.31738 18.2618C7.40527 18.6263 7.49479 19.1341 7.58594 19.7852C7.59245 19.8698 7.62663 19.9398 7.68848 19.9952C7.75033 20.0505 7.82682 20.0782 7.91797 20.0782ZM3.2793 11.5723C3.40951 11.5723 3.48763 11.4974 3.51367 11.3477C3.59831 10.8854 3.67644 10.5192 3.74805 10.249C3.81966 9.97884 3.92383 9.77051 4.06055 9.62402C4.19727 9.47754 4.40235 9.36523 4.67578 9.28711C4.94922 9.20899 5.33334 9.12761 5.82813 9.04297C5.97787 9.01693 6.05274 8.93555 6.05274 8.79883C6.05274 8.66211 5.97787 8.58073 5.82813 8.55468C5.33334 8.47005 4.94922 8.38704 4.67578 8.30566C4.40235 8.22428 4.19727 8.11198 4.06055 7.96875C3.92383 7.82552 3.81966 7.61881 3.74805 7.34863C3.67644 7.07845 3.59831 6.70899 3.51367 6.24023C3.48763 6.09701 3.40951 6.02539 3.2793 6.02539C3.14258 6.02539 3.0612 6.09701 3.03516 6.24023C2.95052 6.70899 2.87239 7.07845 2.80078 7.34863C2.72917 7.61881 2.625 7.82552 2.48828 7.96875C2.35156 8.11198 2.14648 8.22428 1.87305 8.30566C1.59961 8.38704 1.21875 8.47005 0.730468 8.55468C0.580729 8.58073 0.505859 8.66211 0.505859 8.79883C0.505859 8.93555 0.580729 9.01693 0.730468 9.04297C1.21875 9.12761 1.59961 9.20899 1.87305 9.28711C2.14648 9.36523 2.35156 9.47754 2.48828 9.62402C2.625 9.77051 2.72917 9.97884 2.80078 10.249C2.87239 10.5192 2.95052 10.8854 3.03516 11.3477C3.04818 11.4127 3.07422 11.4664 3.11328 11.5088C3.15235 11.5511 3.20769 11.5723 3.2793 11.5723ZM8.63086 5.32226C8.73503 5.32226 8.80013 5.26367 8.82617 5.14648C8.91081 4.75586 8.98405 4.44824 9.0459 4.22363C9.10775 3.99903 9.19564 3.8265 9.30957 3.70605C9.4235 3.58561 9.5944 3.49121 9.82227 3.42285C10.0501 3.35449 10.3659 3.278 10.7696 3.19336C10.8932 3.17383 10.9551 3.10872 10.9551 2.99804C10.9551 2.88737 10.8932 2.81901 10.7696 2.79297C10.3659 2.70833 10.0501 2.63183 9.82227 2.56347C9.5944 2.49512 9.4235 2.40072 9.30957 2.28027C9.19564 2.15983 9.10775 1.98894 9.0459 1.76758C8.98405 1.54623 8.91081 1.24023 8.82617 0.849609C8.80013 0.725911 8.73503 0.664062 8.63086 0.664062C8.52018 0.664062 8.45182 0.725911 8.42578 0.849609C8.34765 1.24023 8.27604 1.54623 8.21094 1.76758C8.14583 1.98894 8.05631 2.15983 7.94238 2.28027C7.82845 2.40072 7.65918 2.49512 7.43457 2.56347C7.20996 2.63183 6.89258 2.70833 6.48242 2.79297C6.35873 2.81901 6.29688 2.88737 6.29688 2.99804C6.29688 3.10872 6.35873 3.17383 6.48242 3.19336C6.89258 3.278 7.20996 3.35449 7.43457 3.42285C7.65918 3.49121 7.82845 3.58561 7.94238 3.70605C8.05631 3.8265 8.14583 3.99903 8.21094 4.22363C8.27604 4.44824 8.34765 4.75586 8.42578 5.14648C8.45182 5.26367 8.52018 5.32226 8.63086 5.32226ZM16.6973 8.76953C16.8275 8.76953 16.9056 8.69792 16.9317 8.55468C17.0163 8.08594 17.0944 7.71647 17.1661 7.44629C17.2377 7.17611 17.3418 6.9694 17.4786 6.82617C17.6152 6.68295 17.8219 6.57064 18.0987 6.48926C18.3753 6.40788 18.7578 6.32487 19.2461 6.24023C19.3958 6.21419 19.4707 6.13281 19.4707 5.99609C19.4707 5.85937 19.3958 5.77799 19.2461 5.75195C18.7578 5.66732 18.3753 5.58594 18.0987 5.50781C17.8219 5.42969 17.6152 5.31738 17.4786 5.1709C17.3418 5.02442 17.2377 4.81608 17.1661 4.5459C17.0944 4.27572 17.0163 3.9095 16.9317 3.44726C16.9056 3.29752 16.8275 3.22265 16.6973 3.22265C16.5605 3.22265 16.4792 3.29752 16.4532 3.44726C16.3685 3.9095 16.2904 4.27572 16.2188 4.5459C16.1472 4.81608 16.043 5.02442 15.9063 5.1709C15.7695 5.31738 15.5645 5.42969 15.2911 5.50781C15.0176 5.58594 14.6367 5.66732 14.1485 5.75195C14.0833 5.76497 14.0296 5.79264 13.9873 5.83496C13.945 5.87728 13.9239 5.93099 13.9239 5.99609C13.9239 6.13281 13.9987 6.21419 14.1485 6.24023C14.6367 6.32487 15.0176 6.40788 15.2911 6.48926C15.5645 6.57064 15.7695 6.68295 15.9063 6.82617C16.043 6.9694 16.1472 7.17611 16.2188 7.44629C16.2904 7.71647 16.3685 8.08594 16.4532 8.55468C16.4792 8.69792 16.5605 8.76953 16.6973 8.76953ZM19.9493 19.9219C20.1576 20.1302 20.4131 20.2344 20.7159 20.2344C21.0186 20.2344 21.2676 20.1302 21.4629 19.9219C21.6647 19.707 21.764 19.4547 21.7608 19.1651C21.7575 18.8753 21.6582 18.6263 21.4629 18.418L12.1758 9.10156C11.974 8.89323 11.7217 8.78906 11.419 8.78906C11.1162 8.78906 10.8672 8.89323 10.6719 9.10156C10.47 9.31641 10.3691 9.57032 10.3691 9.86328C10.3691 10.1562 10.47 10.4069 10.6719 10.6152L19.9493 19.9219ZM14.2754 13.2129L11.4141 10.3418C11.3229 10.2572 11.2692 10.1676 11.253 10.0732C11.2367 9.97884 11.2709 9.88932 11.3555 9.80468C11.4271 9.72656 11.5117 9.69564 11.6094 9.71191C11.707 9.72819 11.8014 9.7819 11.8926 9.87304L14.7637 12.7442L14.2754 13.2129Z" fill="#635BFF"/>
</svg>
