<svg width="19" height="21" viewBox="0 0 19 21" fill="none" xmlns="http://www.w3.org/2000/svg">
<path d="M1.53247 12.7441C1.76033 12.7441 1.95076 12.666 2.10376 12.5097C2.25676 12.3535 2.33326 12.168 2.33326 11.9531V8.99414C2.33326 8.7793 2.25676 8.59212 2.10376 8.43262C1.95076 8.27311 1.76033 8.19336 1.53247 8.19336C1.31763 8.19336 1.13534 8.27311 0.985595 8.43262C0.835856 8.59212 0.760986 8.7793 0.760986 8.99414V11.9531C0.760986 12.168 0.835856 12.3535 0.985595 12.5097C1.13534 12.666 1.31763 12.7441 1.53247 12.7441ZM4.82349 16.7382C5.05135 16.7382 5.24016 16.6618 5.3899 16.5088C5.53964 16.3558 5.61451 16.1686 5.61451 15.9472V5C5.61451 4.77864 5.53964 4.58984 5.3899 4.4336C5.24016 4.27734 5.05135 4.19922 4.82349 4.19922C4.60213 4.19922 4.41659 4.27734 4.26685 4.4336C4.11711 4.58984 4.04224 4.77864 4.04224 5V15.9472C4.04224 16.1686 4.11711 16.3558 4.26685 16.5088C4.41659 16.6618 4.60213 16.7382 4.82349 16.7382ZM8.10474 20.6738C8.3326 20.6738 8.52303 20.5973 8.67603 20.4443C8.82902 20.2913 8.90552 20.1042 8.90552 19.8828V1.06445C8.90552 0.843099 8.82902 0.655924 8.67603 0.502929C8.52303 0.349935 8.3326 0.273438 8.10474 0.273438C7.88338 0.273438 7.69946 0.349935 7.55298 0.502929C7.4065 0.655924 7.33326 0.843099 7.33326 1.06445V19.8828C7.33326 20.1042 7.4065 20.2913 7.55298 20.4443C7.69946 20.5973 7.88338 20.6738 8.10474 20.6738ZM11.3958 15.5468C11.6171 15.5468 11.8043 15.472 11.9573 15.3222C12.1103 15.1725 12.1868 14.987 12.1868 14.7656V6.18164C12.1868 5.96028 12.1103 5.77311 11.9573 5.62012C11.8043 5.46712 11.6171 5.39063 11.3958 5.39063C11.1744 5.39063 10.9888 5.46712 10.8391 5.62012C10.6894 5.77311 10.6145 5.96028 10.6145 6.18164V14.7656C10.6145 14.987 10.6894 15.1725 10.8391 15.3222C10.9888 15.472 11.1744 15.5468 11.3958 15.5468ZM14.6868 18.5058C14.9081 18.5058 15.0937 18.4293 15.2434 18.2763C15.3931 18.1233 15.468 17.9394 15.468 17.7246V3.22266C15.468 3.00781 15.3931 2.82226 15.2434 2.66602C15.0937 2.50976 14.9081 2.43164 14.6868 2.43164C14.4589 2.43164 14.2701 2.50976 14.1204 2.66602C13.9707 2.82226 13.8958 3.00781 13.8958 3.22266V17.7246C13.8958 17.9394 13.9707 18.1233 14.1204 18.2763C14.2701 18.4293 14.4589 18.5058 14.6868 18.5058ZM17.968 13.5839C18.1894 13.5839 18.3766 13.5075 18.5296 13.3545C18.6825 13.2015 18.759 13.0176 18.759 12.8027V8.14453C18.759 7.92969 18.6825 7.74414 18.5296 7.58789C18.3766 7.43164 18.1894 7.35352 17.968 7.35352C17.7401 7.35352 17.553 7.43164 17.4065 7.58789C17.26 7.74414 17.1868 7.92969 17.1868 8.14453V12.8027C17.1868 13.0176 17.26 13.2015 17.4065 13.3545C17.553 13.5075 17.7401 13.5839 17.968 13.5839Z" fill="#635BFF"/>
</svg>
