<svg width="25" height="17" viewBox="0 0 25 17" fill="none" xmlns="http://www.w3.org/2000/svg">
<path d="M3.56055 16.3985H14.0488C15.0319 16.3985 15.8001 16.1283 16.3535 15.5879C16.9069 15.0475 17.1836 14.2858 17.1836 13.3028V3.625C17.1836 2.64844 16.9232 1.88997 16.4024 1.34961C15.8815 0.809245 15.1295 0.539062 14.1465 0.539062H3.56055C2.62305 0.539062 1.86621 0.809245 1.29004 1.34961C0.713867 1.88997 0.425781 2.64844 0.425781 3.625V13.3028C0.425781 14.2858 0.702474 15.0475 1.25586 15.5879C1.80925 16.1283 2.57748 16.3985 3.56055 16.3985ZM18.5117 11.3496L22.0664 14.4258C22.2356 14.569 22.4131 14.6846 22.5987 14.7725C22.7842 14.8603 22.9648 14.9043 23.1406 14.9043C23.5182 14.9043 23.8225 14.779 24.0537 14.5284C24.2848 14.2777 24.4004 13.9505 24.4004 13.5469V3.39062C24.4004 2.98698 24.2848 2.65983 24.0537 2.40918C23.8225 2.15853 23.5182 2.0332 23.1406 2.0332C22.9648 2.0332 22.7842 2.07552 22.5987 2.16015C22.4131 2.24479 22.2356 2.36198 22.0664 2.51172L18.5117 5.57812V11.3496Z" fill="#635BFF"/>
</svg>
