<svg width="17" height="21" viewBox="0 0 17 21" fill="none" xmlns="http://www.w3.org/2000/svg">
<path d="M3.02734 20.9375H13.3984C14.4075 20.9375 15.1644 20.682 15.6689 20.1709C16.1735 19.6598 16.4258 18.8965 16.4258 17.8809V9.01367H9.35547C8.125 9.01367 7.50977 8.39844 7.50977 7.16797V0H3.02734C2.01823 0 1.26139 0.257161 0.756836 0.771484C0.252279 1.28581 0 2.05078 0 3.06641V17.8809C0 18.903 0.252279 19.668 0.756836 20.1758C1.26139 20.6836 2.01823 20.9375 3.02734 20.9375ZM9.38477 7.67578H16.3086C16.2761 7.47396 16.1914 7.27214 16.0547 7.07031C15.918 6.86849 15.7324 6.64714 15.498 6.40625L10.1172 0.927734C9.88933 0.693359 9.67122 0.506185 9.46289 0.366211C9.25456 0.226237 9.04948 0.139974 8.84766 0.107422V7.14844C8.84766 7.5 9.0267 7.67578 9.38477 7.67578Z" fill="#635BFF"/>
</svg>
