<svg width="20" height="20" viewBox="0 0 20 20" fill="none" xmlns="http://www.w3.org/2000/svg">
<path fill-rule="evenodd" clip-rule="evenodd" d="M10 7.75C9.66848 7.75 9.35054 7.6183 9.11612 7.38388C8.8817 7.14946 8.75 6.83152 8.75 6.5C8.75 6.16848 8.8817 5.85054 9.11612 5.61612C9.35054 5.3817 9.66848 5.25 10 5.25C10.3315 5.25 10.6495 5.3817 10.8839 5.61612C11.1183 5.85054 11.25 6.16848 11.25 6.5C11.25 6.83152 11.1183 7.14946 10.8839 7.38388C10.6495 7.6183 10.3315 7.75 10 7.75ZM7.25 6.5C7.25 5.77065 7.53973 5.07118 8.05546 4.55546C8.57118 4.03973 9.27065 3.75 10 3.75C10.7293 3.75 11.4288 4.03973 11.9445 4.55546C12.4603 5.07118 12.75 5.77065 12.75 6.5C12.75 7.22935 12.4603 7.92882 11.9445 8.44454C11.4288 8.96027 10.7293 9.25 10 9.25C9.27065 9.25 8.57118 8.96027 8.05546 8.44454C7.53973 7.92882 7.25 7.22935 7.25 6.5ZM6.75 13.75C6.75 13.33 6.98 12.92 7.55 12.58C8.30069 12.1726 9.14632 11.9724 10 12C11.03 12 11.88 12.23 12.45 12.58C13.02 12.92 13.25 13.33 13.25 13.75C13.25 14.05 13.15 14.19 13.03 14.29C12.89 14.4 12.63 14.5 12.25 14.5H7.75C7.36 14.5 7.11 14.4 6.97 14.29C6.85 14.19 6.75 14.04 6.75 13.75ZM10 10.5C8.78 10.5 7.63 10.77 6.77 11.3C5.89 11.83 5.25 12.67 5.25 13.75C5.25 14.45 5.53 15.05 6.03 15.46C6.51 15.85 7.13 16 7.75 16H12.25C12.86 16 13.49 15.85 13.97 15.46C14.47 15.06 14.75 14.46 14.75 13.75C14.75 12.67 14.11 11.83 13.23 11.3C12.37 10.77 11.23 10.5 10 10.5ZM14 4.91C14.06 4.51 14.44 4.21 14.85 4.27C15.484 4.35013 16.0632 4.66998 16.4687 5.16384C16.8742 5.65771 17.0752 6.2881 17.0304 6.92554C16.9856 7.56297 16.6984 8.15905 16.2278 8.59135C15.7572 9.02364 15.1389 9.25933 14.5 9.25C14.3011 9.25 14.1103 9.17098 13.9697 9.03033C13.829 8.88968 13.75 8.69891 13.75 8.5C13.75 8.30109 13.829 8.11032 13.9697 7.96967C14.1103 7.82902 14.3011 7.75 14.5 7.75C14.7529 7.74973 14.9963 7.65366 15.1812 7.48114C15.3661 7.30861 15.4787 7.07244 15.4965 6.82018C15.5142 6.56792 15.4357 6.3183 15.2768 6.12159C15.1179 5.92487 14.8904 5.79567 14.64 5.76C14.444 5.73036 14.2676 5.6243 14.1496 5.46502C14.0315 5.30573 13.9813 5.10618 14.01 4.91H14ZM15.76 10C15.5611 10 15.3703 10.079 15.2297 10.2197C15.089 10.3603 15.01 10.5511 15.01 10.75C15.01 10.9489 15.089 11.1397 15.2297 11.2803C15.3703 11.421 15.5611 11.5 15.76 11.5C16.92 11.5 17.51 12.17 17.51 12.75C17.51 12.97 17.44 13.16 17.32 13.3C17.22 13.42 17.08 13.5 16.86 13.5C16.6611 13.5 16.4703 13.579 16.3297 13.7197C16.189 13.8603 16.11 14.0511 16.11 14.25C16.11 14.4489 16.189 14.6397 16.3297 14.7803C16.4703 14.921 16.6611 15 16.86 15C18.29 15 19.01 13.79 19.01 12.75C19.01 11.04 17.41 10 15.76 10ZM5 10.75C5 10.5511 4.92098 10.3603 4.78033 10.2197C4.63968 10.079 4.44891 10 4.25 10C2.61 10 1 11.04 1 12.75C1 13.79 1.72 15 3.15 15C3.34891 15 3.53968 14.921 3.68033 14.7803C3.82098 14.6397 3.9 14.4489 3.9 14.25C3.9 14.0511 3.82098 13.8603 3.68033 13.7197C3.53968 13.579 3.34891 13.5 3.15 13.5C3.0615 13.5055 2.97293 13.4903 2.89134 13.4556C2.80975 13.4209 2.73739 13.3676 2.68 13.3C2.55827 13.143 2.49466 12.9486 2.5 12.75C2.5 12.17 3.1 11.5 4.25 11.5C4.66 11.5 5 11.16 5 10.75ZM5.14 4.28C5.32919 4.26541 5.51688 4.32308 5.66524 4.44138C5.8136 4.55968 5.91161 4.72982 5.93951 4.91751C5.96741 5.1052 5.92313 5.29648 5.81559 5.45282C5.70805 5.60916 5.54525 5.71893 5.36 5.76C5.10964 5.79567 4.8821 5.92487 4.72318 6.12159C4.56427 6.3183 4.48578 6.56792 4.50353 6.82018C4.52128 7.07244 4.63394 7.30861 4.81883 7.48114C5.00372 7.65366 5.24712 7.74973 5.5 7.75C5.69891 7.75 5.88968 7.82902 6.03033 7.96967C6.17098 8.11032 6.25 8.30109 6.25 8.5C6.25 8.69891 6.17098 8.88968 6.03033 9.03033C5.88968 9.17098 5.69891 9.25 5.5 9.25C4.87263 9.24365 4.27057 9.00163 3.81335 8.57199C3.35613 8.14236 3.07717 7.55651 3.03185 6.93074C2.98652 6.30497 3.17814 5.68504 3.56867 5.194C3.9592 4.70295 4.52009 4.3767 5.14 4.28Z" fill="white"/>
</svg>
