<svg width="20" height="20" viewBox="0 0 20 20" fill="none" xmlns="http://www.w3.org/2000/svg">
<path fill-rule="evenodd" clip-rule="evenodd" d="M8.32 2H9.25C9.34849 2 9.44602 2.0194 9.53701 2.05709C9.62801 2.09478 9.71069 2.15003 9.78033 2.21967C9.84997 2.28931 9.90522 2.37199 9.94291 2.46299C9.9806 2.55398 10 2.65151 10 2.75C10 2.84849 9.9806 2.94602 9.94291 3.03701C9.90522 3.12801 9.84997 3.21069 9.78033 3.28033C9.71069 3.34997 9.62801 3.40522 9.53701 3.44291C9.44602 3.4806 9.34849 3.5 9.25 3.5H8.35C7.35 3.5 6.65 3.5 6.11 3.54C5.72983 3.55368 5.35606 3.64202 5.01 3.8C4.48978 4.06179 4.06609 4.48197 3.8 5C3.67 5.25 3.59 5.57 3.54 6.11C3.5 6.66 3.5 7.36 3.5 8.35V11.65C3.5 12.65 3.5 13.35 3.54 13.89C3.59 14.42 3.67 14.75 3.8 14.99C4.06179 15.5102 4.48197 15.9339 5 16.2C5.25 16.33 5.57 16.41 6.11 16.46C6.66 16.5 7.36 16.5 8.35 16.5H9.25C9.44891 16.5 9.63968 16.579 9.78033 16.7197C9.92098 16.8603 10 17.0511 10 17.25C10 17.4489 9.92098 17.6397 9.78033 17.7803C9.63968 17.921 9.44891 18 9.25 18H8.32C7.36 18 6.6 18 5.99 17.95C5.41175 17.9248 4.8442 17.7854 4.32 17.54C3.51891 17.1323 2.8677 16.4811 2.46 15.68C2.21304 15.1528 2.07366 14.5817 2.05 14C2 13.4 2 12.64 2 11.68V8.32C2 7.36 2 6.6 2.05 5.99C2.1 5.36 2.21 4.82 2.46 4.32C2.8677 3.51891 3.51891 2.8677 4.32 2.46C4.82 2.21 5.36 2.1 5.99 2.05C6.6 2 7.36 2 8.32 2ZM14.22 6.97C14.3606 6.82955 14.5512 6.75066 14.75 6.75066C14.9488 6.75066 15.1394 6.82955 15.28 6.97L17.78 9.47C17.9205 9.61063 17.9993 9.80125 17.9993 10C17.9993 10.1988 17.9205 10.3894 17.78 10.53L15.28 13.03C15.2113 13.1037 15.1285 13.1628 15.0365 13.2038C14.9445 13.2448 14.8452 13.2668 14.7445 13.2686C14.6438 13.2704 14.5438 13.2518 14.4504 13.2141C14.357 13.1764 14.2722 13.1203 14.201 13.049C14.1297 12.9778 14.0736 12.893 14.0359 12.7996C13.9982 12.7062 13.9796 12.6062 13.9814 12.5055C13.9832 12.4048 14.0052 12.3055 14.0462 12.2135C14.0872 12.1215 14.1463 12.0387 14.22 11.97L15.44 10.75H8.75C8.55109 10.75 8.36032 10.671 8.21967 10.5303C8.07902 10.3897 8 10.1989 8 10C8 9.80109 8.07902 9.61032 8.21967 9.46967C8.36032 9.32902 8.55109 9.25 8.75 9.25H15.44L14.22 8.03C14.0795 7.88937 14.0007 7.69875 14.0007 7.5C14.0007 7.30125 14.0795 7.11063 14.22 6.97Z" fill="#FC3E3E"/>
</svg>
