<svg width="20" height="20" viewBox="0 0 20 20" fill="none" xmlns="http://www.w3.org/2000/svg">
<path fill-rule="evenodd" clip-rule="evenodd" d="M16.9408 12.5955V7.71079H17.9549L16.9408 6.57656L15.6304 5V6.57656H14.608V7.71079H15.6304V12.5955C15.6304 13.402 15.8128 13.9817 16.1776 14.3346C16.5424 14.6875 17.0896 14.8639 17.8192 14.8639H19V13.6994H18.0352C17.632 13.6994 17.3488 13.6188 17.1856 13.4575C17.0224 13.2861 16.9408 12.9987 16.9408 12.5955ZM11.5869 7.92249C11.8173 7.44863 12.1437 7.08064 12.5661 6.81851C12.9981 6.55638 13.5213 6.42531 14.1357 6.42531V7.84687H13.7901C12.3213 7.84687 11.5869 8.68368 11.5869 10.3573V14.8639H10.2765V6.57656H11.5869V7.92249ZM1 10.69C1 9.84308 1.16322 9.10207 1.4896 8.4669C1.81601 7.82167 2.26241 7.32261 2.8288 6.96975C3.4048 6.61687 4.04322 6.44045 4.744 6.44045C5.4352 6.44045 6.03521 6.59671 6.544 6.90926C7.05282 7.22179 7.43201 7.61498 7.6816 8.08885V6.57656H9.0064V14.8639H7.6816V13.3214C7.4224 13.8053 7.0336 14.2086 6.5152 14.5312C6.00641 14.8437 5.41122 15 4.7296 15C4.02882 15 3.39522 14.8185 2.8288 14.4556C2.26241 14.0926 1.81601 13.5835 1.4896 12.9282C1.16322 12.2728 1 11.5268 1 10.69ZM7.6816 10.7051C7.6816 10.08 7.56161 9.5356 7.3216 9.07183C7.08162 8.60806 6.75521 8.2552 6.3424 8.01322C5.9392 7.76118 5.4928 7.63516 5.0032 7.63516C4.5136 7.63516 4.0672 7.75614 3.664 7.99809C3.2608 8.24006 2.93921 8.59292 2.6992 9.05669C2.45922 9.52046 2.3392 10.0649 2.3392 10.69C2.3392 11.3251 2.45922 11.8796 2.6992 12.3535C2.93921 12.8173 3.2608 13.1752 3.664 13.4272C4.0672 13.6692 4.5136 13.7902 5.0032 13.7902C5.4928 13.7902 5.9392 13.6692 6.3424 13.4272C6.75521 13.1752 7.08162 12.8173 7.3216 12.3535C7.56161 11.8796 7.6816 11.3302 7.6816 10.7051Z" fill="white"/>
</svg>
