<svg width="16" height="18" viewBox="0 0 16 18" fill="none" xmlns="http://www.w3.org/2000/svg">
<path fill-rule="evenodd" clip-rule="evenodd" d="M1.78327 12.125C1.3652 13.1913 1.00359 14.2789 0.699937 15.3833C0.241603 17.3583 -0.0917298 17.8 1.62494 16.8667C3.34994 15.925 11.6666 11.2917 13.5249 10.2667C15.9416 8.925 15.9749 9.02499 13.3916 7.6C11.4249 6.51666 3.19994 1.99999 1.62494 1.11666C0.0499368 0.224995 0.241603 0.616661 0.70827 2.59166C0.849936 3.22499 1.2166 4.32499 1.7916 5.87499C1.99086 6.41317 2.32568 6.89079 2.76366 7.26161C3.20164 7.63243 3.72794 7.8839 4.2916 7.99166L9.0916 8.91666C9.1137 8.91666 9.1349 8.92544 9.15053 8.94107C9.16616 8.9567 9.17494 8.97789 9.17494 9C9.17494 9.0221 9.16616 9.04329 9.15053 9.05892C9.1349 9.07455 9.1137 9.08333 9.0916 9.08333L4.27494 10C3.71127 10.1078 3.18497 10.3592 2.74699 10.7301C2.30902 11.1009 1.97419 11.5785 1.77494 12.1167L1.78327 12.125Z" fill="#635BFF"/>
</svg>
