<svg width="20" height="20" viewBox="0 0 20 20" fill="none" xmlns="http://www.w3.org/2000/svg">
<path fill-rule="evenodd" clip-rule="evenodd" d="M6.25 3.5C5.45435 3.5 4.69129 3.81607 4.12868 4.37868C3.56607 4.94129 3.25 5.70435 3.25 6.5C3.25 7.29565 3.56607 8.05871 4.12868 8.62132C4.69129 9.18393 5.45435 9.5 6.25 9.5C7.04565 9.5 7.80871 9.18393 8.37132 8.62132C8.93393 8.05871 9.25 7.29565 9.25 6.5C9.25 5.70435 8.93393 4.94129 8.37132 4.37868C7.80871 3.81607 7.04565 3.5 6.25 3.5ZM4.75 6.5C4.75 6.69698 4.7888 6.89204 4.86418 7.07403C4.93956 7.25601 5.05005 7.42137 5.18934 7.56066C5.32863 7.69995 5.49399 7.81044 5.67597 7.88582C5.85796 7.9612 6.05302 8 6.25 8C6.44698 8 6.64204 7.9612 6.82403 7.88582C7.00601 7.81044 7.17137 7.69995 7.31066 7.56066C7.44995 7.42137 7.56044 7.25601 7.63582 7.07403C7.7112 6.89204 7.75 6.69698 7.75 6.5C7.75 6.10218 7.59196 5.72064 7.31066 5.43934C7.02936 5.15804 6.64782 5 6.25 5C5.85218 5 5.47064 5.15804 5.18934 5.43934C4.90804 5.72064 4.75 6.10218 4.75 6.5ZM2.69 11.57C3.65 11.02 4.91 10.75 6.25 10.75C7.59 10.75 8.85 11.02 9.81 11.57C10.79 12.13 11.5 13.04 11.5 14.25C11.5 14.95 11.22 15.55 10.72 15.96C10.24 16.35 9.62 16.5 9 16.5H3.5C2.89 16.5 2.26 16.35 1.78 15.96C1.28 15.56 1 14.96 1 14.25C1 13.04 1.71 12.13 2.69 11.57ZM3.44 12.87C2.79 13.24 2.5 13.71 2.5 14.25C2.5 14.55 2.6 14.69 2.72 14.79C2.86 14.9 3.12 15 3.5 15H9C9.39 15 9.64 14.9 9.78 14.79C9.9 14.69 10 14.54 10 14.25C10 13.71 9.71 13.25 9.06 12.87C8.4 12.48 7.41 12.25 6.25 12.25C5.09 12.25 4.1 12.48 3.44 12.87ZM13.75 3.5C12.9544 3.5 12.1913 3.81607 11.6287 4.37868C11.0661 4.94129 10.75 5.70435 10.75 6.5C10.75 7.29565 11.0661 8.05871 11.6287 8.62132C12.1913 9.18393 12.9544 9.5 13.75 9.5C14.5456 9.5 15.3087 9.18393 15.8713 8.62132C16.4339 8.05871 16.75 7.29565 16.75 6.5C16.75 5.70435 16.4339 4.94129 15.8713 4.37868C15.3087 3.81607 14.5456 3.5 13.75 3.5ZM12.25 6.5C12.25 6.89782 12.408 7.27936 12.6893 7.56066C12.9706 7.84196 13.3522 8 13.75 8C14.1478 8 14.5294 7.84196 14.8107 7.56066C15.092 7.27936 15.25 6.89782 15.25 6.5C15.25 6.10218 15.092 5.72064 14.8107 5.43934C14.5294 5.15804 14.1478 5 13.75 5C13.3522 5 12.9706 5.15804 12.6893 5.43934C12.408 5.72064 12.25 6.10218 12.25 6.5Z" fill="white"/>
<path d="M13.7497 12.25C13.5197 12.25 13.2997 12.26 13.0697 12.28C12.9683 12.2965 12.8646 12.292 12.765 12.2668C12.6653 12.2415 12.572 12.1961 12.4907 12.1332C12.4093 12.0704 12.3418 11.9915 12.2922 11.9015C12.2427 11.8115 12.2121 11.7122 12.2025 11.6099C12.1929 11.5076 12.2044 11.4044 12.2363 11.3067C12.2683 11.209 12.3199 11.119 12.3881 11.0421C12.4563 10.9652 12.5396 10.9031 12.6328 10.8598C12.7259 10.8164 12.827 10.7927 12.9297 10.79C13.1997 10.76 13.4697 10.75 13.7497 10.75C15.0897 10.75 16.3497 11.02 17.3097 11.57C18.2897 12.13 18.9997 13.04 18.9997 14.25C18.9997 14.95 18.7197 15.55 18.2197 15.96C17.7397 16.35 17.1197 16.5 16.4997 16.5H13.4997C13.3008 16.5 13.1101 16.421 12.9694 16.2803C12.8288 16.1397 12.7497 15.9489 12.7497 15.75C12.7497 15.5511 12.8288 15.3603 12.9694 15.2197C13.1101 15.079 13.3008 15 13.4997 15H16.4997C16.8897 15 17.1397 14.9 17.2797 14.79C17.3997 14.69 17.4997 14.54 17.4997 14.25C17.4997 13.71 17.2097 13.25 16.5597 12.87C15.6905 12.4293 14.7237 12.216 13.7497 12.25Z" fill="white"/>
</svg>
