<svg width="20" height="20" viewBox="0 0 20 20" fill="none" xmlns="http://www.w3.org/2000/svg">
<g clip-path="url(#clip0_481_146)">
<path d="M6.83056 15.75C7.03056 15.52 7.36056 15.44 7.65056 15.55C8.46056 15.85 9.35056 16 10.2506 16C14.0206 16 17.0006 13.3 17.0006 10C17.0006 6.7 14.0206 4 10.2506 4C6.48056 4 3.50056 6.7 3.50056 10C3.50056 11.21 3.90056 12.37 4.64056 13.35C4.74056 13.49 4.80056 13.66 4.79056 13.84C4.75056 14.6 4.39056 15.62 3.71056 16.97C5.19056 16.86 6.21056 16.44 6.83056 15.75ZM3.24056 18.5C3.02912 18.5078 2.81937 18.4596 2.63257 18.3603C2.44577 18.2609 2.28856 18.1139 2.17688 17.9342C2.0652 17.7545 2.00302 17.5485 1.99664 17.337C1.99026 17.1255 2.03991 16.9161 2.14056 16.73C2.63737 15.8757 3.01424 14.9571 3.26056 14C2.44163 12.8268 2.00189 11.4308 2.00056 10C2.00056 5.83 5.68056 2.5 10.2506 2.5C14.8206 2.5 18.5006 5.83 18.5006 10C18.5006 14.17 14.8206 17.5 10.2506 17.5C9.33056 17.5 8.44056 17.37 7.59056 17.1C6.59056 17.99 5.13056 18.44 3.24056 18.5Z" fill="white"/>
</g>
<defs>
<clipPath id="clip0_481_146">
<rect width="20" height="20" fill="white"/>
</clipPath>
</defs>
</svg>
