<svg width="20" height="20" viewBox="0 0 20 20" fill="none" xmlns="http://www.w3.org/2000/svg">
<path fill-rule="evenodd" clip-rule="evenodd" d="M5.84 15.63C7.0425 16.5245 8.50129 17.0076 10 17.0076C11.4987 17.0076 12.9575 16.5245 14.16 15.63C12.8993 14.8878 11.463 14.4964 10 14.4964C8.53704 14.4964 7.10072 14.8878 5.84 15.63ZM4.7 14.57C3.82421 13.5549 3.25834 12.3097 3.06967 10.9824C2.88099 9.65507 3.07745 8.30148 3.63568 7.08257C4.19391 5.86365 5.09043 4.83068 6.21865 4.10647C7.34687 3.38225 8.65934 2.99725 10 2.99725C11.3407 2.99725 12.6531 3.38225 13.7813 4.10647C14.9096 4.83068 15.8061 5.86365 16.3643 7.08257C16.9226 8.30148 17.119 9.65507 16.9303 10.9824C16.7417 12.3097 16.1758 13.5549 15.3 14.57C13.7236 13.5416 11.8821 12.994 10 12.994C8.11785 12.994 6.27636 13.5416 4.7 14.57ZM10 1.5C8.88376 1.5 7.77846 1.71986 6.74719 2.14702C5.71592 2.57419 4.77889 3.20029 3.98959 3.98959C3.20029 4.77889 2.57419 5.71592 2.14702 6.74719C1.71986 7.77846 1.5 8.88376 1.5 10C1.5 11.1162 1.71986 12.2215 2.14702 13.2528C2.57419 14.2841 3.20029 15.2211 3.98959 16.0104C4.77889 16.7997 5.71592 17.4258 6.74719 17.853C7.77846 18.2801 8.88376 18.5 10 18.5C12.2543 18.5 14.4163 17.6045 16.0104 16.0104C17.6045 14.4163 18.5 12.2543 18.5 10C18.5 7.74566 17.6045 5.58365 16.0104 3.98959C14.4163 2.39553 12.2543 1.5 10 1.5ZM8.5 8.5C8.5 8.89782 8.65804 9.27936 8.93934 9.56066C9.22064 9.84196 9.60218 10 10 10C10.3978 10 10.7794 9.84196 11.0607 9.56066C11.342 9.27936 11.5 8.89782 11.5 8.5C11.5 8.10218 11.342 7.72064 11.0607 7.43934C10.7794 7.15804 10.3978 7 10 7C9.60218 7 9.22064 7.15804 8.93934 7.43934C8.65804 7.72064 8.5 8.10218 8.5 8.5ZM10 5.5C9.60603 5.5 9.21593 5.5776 8.85195 5.72836C8.48797 5.87913 8.15726 6.1001 7.87868 6.37868C7.6001 6.65726 7.37913 6.98797 7.22836 7.35195C7.0776 7.71593 7 8.10603 7 8.5C7 8.89397 7.0776 9.28407 7.22836 9.64805C7.37913 10.012 7.6001 10.3427 7.87868 10.6213C8.15726 10.8999 8.48797 11.1209 8.85195 11.2716C9.21593 11.4224 9.60603 11.5 10 11.5C10.7956 11.5 11.5587 11.1839 12.1213 10.6213C12.6839 10.0587 13 9.29565 13 8.5C13 7.70435 12.6839 6.94129 12.1213 6.37868C11.5587 5.81607 10.7956 5.5 10 5.5Z" fill="white"/>
</svg>
