<svg width="147" height="79" viewBox="0 0 147 79" fill="none" xmlns="http://www.w3.org/2000/svg">
<path fill-rule="evenodd" clip-rule="evenodd" d="M130.051 60.016V21.7316H138.275L130.051 12.842L119.424 0.485535V12.842H111.133V21.7316H119.424V60.016C119.424 66.3373 120.904 70.8808 123.862 73.6466C126.821 76.4121 131.258 77.795 137.175 77.795H146.751V68.6684H138.927C135.657 68.6684 133.36 68.0361 132.037 66.7718C130.713 65.4285 130.051 63.1765 130.051 60.016ZM86.6329 23.3909C88.5014 19.6769 91.1483 16.7927 94.574 14.7383C98.0774 12.6838 102.32 11.6566 107.303 11.6566V22.7982H104.5C92.5887 22.7982 86.6329 29.3568 86.6329 42.4737V77.7948H76.0058V12.842H86.6329V23.3909ZM0.775146 45.0814C0.775146 38.4437 2.0988 32.636 4.74569 27.6578C7.39279 22.6007 11.013 18.6892 15.6063 15.9237C20.2775 13.1579 25.455 11.7752 31.1381 11.7752C36.7436 11.7752 41.6096 12.9999 45.7358 15.4496C49.8621 17.8991 52.9373 20.9808 54.9614 24.6947V12.842H65.7053V77.7948H54.9614V65.7051C52.8594 69.4979 49.7063 72.6587 45.5022 75.1872C41.376 77.6367 36.5491 78.8616 31.0214 78.8616C25.3382 78.8616 20.1998 77.4392 15.6063 74.5945C11.013 71.7498 7.39279 67.7595 4.74569 62.6234C2.0988 57.4872 0.775146 51.6397 0.775146 45.0814ZM54.9614 45.1998C54.9614 40.3007 53.9883 36.0338 52.0419 32.3989C50.0957 28.7641 47.4486 25.9985 44.1008 24.102C40.831 22.1266 37.2108 21.1389 33.2402 21.1389C29.2697 21.1389 25.6495 22.0871 22.3796 23.9834C19.1097 25.8799 16.5017 28.6454 14.5553 32.2803C12.6091 35.9151 11.6358 40.1822 11.6358 45.0814C11.6358 50.0594 12.6091 54.4053 14.5553 58.1193C16.5017 61.7541 19.1097 64.5592 22.3796 66.5348C25.6495 68.4311 29.2697 69.3793 33.2402 69.3793C37.2108 69.3793 40.831 68.4311 44.1008 66.5348C47.4486 64.5592 50.0957 61.7541 52.0419 58.1193C53.9883 54.4053 54.9614 50.0989 54.9614 45.1998Z" fill="url(#paint0_linear_40_7)"/>
<defs>
<linearGradient id="paint0_linear_40_7" x1="-57" y1="17" x2="199.078" y2="64.0763" gradientUnits="userSpaceOnUse">
<stop offset="0.0858841" stop-color="#D95656"/>
<stop offset="0.494267" stop-color="#AC55BA"/>
<stop offset="0.845163" stop-color="#0778E0"/>
</linearGradient>
</defs>
</svg>
