<svg width="17" height="17" viewBox="0 0 17 17" fill="none" xmlns="http://www.w3.org/2000/svg">
<path d="M8.5 17C9.61624 17 10.7215 16.7801 11.7528 16.353C12.7841 15.9258 13.7211 15.2997 14.5104 14.5104C15.2997 13.7211 15.9258 12.7841 16.353 11.7528C16.7801 10.7215 17 9.61624 17 8.5C17 7.38376 16.7801 6.27846 16.353 5.24719C15.9258 4.21592 15.2997 3.27889 14.5104 2.48959C13.7211 1.70029 12.7841 1.07419 11.7528 0.647024C10.7215 0.219859 9.61624 -1.66332e-08 8.5 0C6.24566 3.35923e-08 4.08365 0.895533 2.48959 2.48959C0.895533 4.08365 0 6.24566 0 8.5C0 10.7543 0.895533 12.9163 2.48959 14.5104C4.08365 16.1045 6.24566 17 8.5 17ZM12.9 13.95C11.555 15.0282 9.85937 15.5721 8.13813 15.4776C6.41688 15.3831 4.79104 14.6568 3.5721 13.4379C2.35317 12.219 1.62687 10.5931 1.53237 8.87187C1.43788 7.15063 1.98183 5.45505 3.06 4.11L12.89 13.95H12.9ZM13.95 12.89L4.11 3.05C5.45505 1.97183 7.15063 1.42788 8.87187 1.52237C10.5931 1.61687 12.219 2.34317 13.4379 3.5621C14.6568 4.78104 15.3831 6.40688 15.4776 8.12813C15.5721 9.84937 15.0282 11.545 13.95 12.89Z" fill="#FF5B5B"/>
</svg>
